<svg xmlns="http://www.w3.org/2000/svg" viewBox="0 0 165 110" fill="none"><path
    fill-rule="evenodd"
    clip-rule="evenodd"
    d="M105.497 33.9165C105.212 34.2269 104.939 34.5437 104.66 34.8604L86.168 34.436C86.168 34.436 86.1553 34.4487 86.149 34.455L60.6562 33.8722C60.8907 33.5491 61.1314 33.2323 61.3721 32.9219L79.8708 33.3463C79.8708 33.3463 79.8835 33.3337 79.8898 33.3273L105.503 33.9165H105.497Z"
    fill="url(#paint0_linear_3518_66758)"
  /><path
    d="M89.1508 18.7938C89.8576 18.7938 90.4305 18.2208 90.4305 17.5141C90.4305 16.8073 89.8576 16.2344 89.1508 16.2344C88.444 16.2344 87.8711 16.8073 87.8711 17.5141C87.8711 18.2208 88.444 18.7938 89.1508 18.7938Z"
    fill="url(#paint1_linear_3518_66758)"
  /><path
    d="M74.6703 51.2469C75.3771 51.2469 75.95 50.674 75.95 49.9672C75.95 49.2604 75.3771 48.6875 74.6703 48.6875C73.9636 48.6875 73.3906 49.2604 73.3906 49.9672C73.3906 50.674 73.9636 51.2469 74.6703 51.2469Z"
    fill="url(#paint2_linear_3518_66758)"
  /><path
    fill-rule="evenodd"
    clip-rule="evenodd"
    d="M99.2253 28.7995C99.2127 29.5217 98.6172 30.0919 97.8949 30.0792C97.3755 30.0666 96.932 29.7561 96.7293 29.3127L77.4893 28.9199C77.4893 28.9199 77.4893 28.9199 77.4893 28.9136L68.1133 28.7235C68.1133 28.7235 68.1133 28.7172 68.1133 28.7108C68.5061 28.3371 68.9178 27.976 69.336 27.6275L88.5949 28.0203L96.7483 28.1913C96.97 27.7542 97.4198 27.4565 97.9456 27.4691C98.6678 27.4818 99.238 28.0773 99.2253 28.7995V28.7995Z"
    fill="url(#paint3_linear_3518_66758)"
  /><path
    fill-rule="evenodd"
    clip-rule="evenodd"
    d="M96.405 23.6745C96.3924 24.3967 95.7968 24.9669 95.0746 24.9542C94.5552 24.9416 94.1117 24.6311 93.909 24.1877L74.669 23.7949C74.669 23.7949 74.669 23.7949 74.669 23.7886L65.293 23.5985C65.293 23.5985 65.293 23.5922 65.293 23.5858C65.6857 23.2121 66.0975 22.851 66.5157 22.5025L85.7746 22.8953L93.928 23.0663C94.1497 22.6292 94.5995 22.3315 95.1253 22.3441C95.8475 22.3568 96.4177 22.9523 96.405 23.6745V23.6745Z"
    fill="url(#paint4_linear_3518_66758)"
  /><path
    fill-rule="evenodd"
    clip-rule="evenodd"
    d="M104.762 38.6632L104.75 39.8035L87.4735 39.6198V39.6388L68.6771 39.4424C68.4997 39.9745 67.9929 40.3547 67.4037 40.3483C66.6688 40.342 66.0797 39.7401 66.086 39.0053C66.0923 38.2704 66.6942 37.6812 67.429 37.6876C67.8915 37.6876 68.3033 37.9346 68.5377 38.3021L85.1295 38.4794C85.1295 38.4794 85.1422 38.4668 85.1485 38.4604L104.762 38.6695V38.6632Z"
    fill="url(#paint5_linear_3518_66758)"
  /><path
    d="M69.7991 45.4733C70.5339 45.4733 71.1295 44.8776 71.1295 44.1429C71.1295 43.4081 70.5339 42.8125 69.7991 42.8125C69.0644 42.8125 68.4688 43.4081 68.4688 44.1429C68.4688 44.8776 69.0644 45.4733 69.7991 45.4733Z"
    fill="url(#paint6_linear_3518_66758)"
  /><path
    fill-rule="evenodd"
    clip-rule="evenodd"
    d="M70.2588 43.4219C69.8407 43.783 69.4226 44.1504 69.0234 44.5369C69.0234 44.5369 69.0234 44.5432 69.0234 44.5495L89.8535 44.7713L89.8662 43.6309L70.2525 43.4219H70.2588Z"
    fill="url(#paint7_linear_3518_66758)"
  /><path
    fill-rule="evenodd"
    clip-rule="evenodd"
    d="M112.61 30.0334C112.971 29.837 112.179 27.664 112.09 27.4423C111.241 25.358 109.765 24.1543 107.991 22.8746C103.348 19.5297 98.3872 16.5395 93.205 14.1194C90.2845 12.7574 87.2499 11.6614 84.2154 10.5844C82.7456 10.0649 74.6746 8.37975 76.2394 5.58593C76.5371 5.06011 77.101 4.74969 77.6458 4.48361C79.635 3.527 88.2699 0.752195 90.6456 0.41643C95.0675 -0.210752 99.1791 1.73415 102.948 3.81208C108.137 6.66925 113.161 10.388 116.791 15.114C123.607 23.9896 112.667 29.9954 112.61 30.027V30.0334Z"
    fill="url(#paint8_linear_3518_66758)"
  /><path
    fill-rule="evenodd"
    clip-rule="evenodd"
    d="M119.257 18.2956C119.257 18.2956 122.146 22.9266 120.486 27.6717C119.732 29.8193 117.825 31.7642 116.355 33.4303C114.202 35.8694 111.87 38.169 109.355 40.2343C105.757 43.1928 101.911 45.86 97.8631 48.1596C96.0259 49.2049 94.271 50.3453 92.1044 50.4023C90.0201 50.4593 87.9612 49.9018 85.9593 49.395C84.1854 48.9452 82.4496 48.356 80.7708 47.6338C79.9029 47.26 79.0413 46.8546 78.205 46.4175C77.4955 46.0437 76.7669 45.6129 76.6339 44.7323C76.4629 43.5983 78.0467 42.8888 78.8512 42.5086C80.2956 41.8308 81.8224 41.3176 83.2985 40.7158C89.5513 38.1817 95.7851 35.559 101.696 32.309C104.54 30.7442 107.226 28.888 109.761 26.8544C112.016 25.0489 114.715 23.085 116.146 20.5066C116.622 19.645 116.932 18.6884 116.926 17.6938C116.913 15.7172 115.728 13.994 114.442 12.5939C113.891 12.0048 113.049 11.0482 113.764 11.707C115.088 12.9234 117.426 15.0013 119.257 18.2956V18.2956Z"
    fill="url(#paint9_linear_3518_66758)"
  /><path
    fill-rule="evenodd"
    clip-rule="evenodd"
    d="M52.3418 37.7344C51.9871 37.9371 52.7916 40.0974 52.8867 40.3191C53.7609 42.3907 55.2497 43.5881 57.0299 44.8424C61.7116 48.1367 66.6973 51.0763 71.9049 53.4456C74.838 54.7823 77.8853 55.8403 80.9325 56.8919C82.4086 57.3988 90.4923 59.0016 88.9592 61.808C88.6677 62.3402 88.1039 62.657 87.5654 62.923C85.5888 63.905 76.9793 66.7622 74.61 67.1233C70.1944 67.7948 66.0638 65.8942 62.2754 63.8543C57.0552 61.0478 51.9934 57.3861 48.3127 52.6917C41.401 43.8858 52.2848 37.7661 52.3418 37.7344V37.7344Z"
    fill="url(#paint10_linear_3518_66758)"
  /><path
    fill-rule="evenodd"
    clip-rule="evenodd"
    d="M45.8063 49.5437C45.8063 49.5437 42.8731 44.9444 44.4823 40.1803C45.2108 38.0264 47.0987 36.0625 48.5558 34.3773C50.6844 31.9193 52.9904 29.5943 55.4865 27.5037C59.0532 24.5071 62.867 21.802 66.8961 19.4643C68.727 18.4 70.4628 17.247 72.6295 17.1647C74.7137 17.0823 76.779 17.6208 78.7809 18.1086C80.5548 18.5457 82.2969 19.1159 83.9884 19.8128C84.8627 20.1739 85.7243 20.573 86.5669 21.0038C87.2827 21.3712 88.0113 21.7957 88.1506 22.6763C88.3344 23.8039 86.7569 24.5325 85.9523 24.9189C84.5143 25.6094 82.9938 26.1416 81.5241 26.7561C75.2966 29.3535 69.0944 32.0396 63.2091 35.3529C60.3772 36.9494 57.7165 38.831 55.2014 40.8899C52.9651 42.7207 50.2853 44.71 48.8852 47.3011C48.4164 48.169 48.1187 49.1319 48.1377 50.1202C48.1694 52.0968 49.3667 53.8073 50.6781 55.1947C51.2356 55.7775 52.0845 56.7278 51.3623 56.0753C50.0256 54.878 47.6625 52.819 45.8 49.5437H45.8063Z"
    fill="url(#paint11_linear_3518_66758)"
  /><path
    d="M51.2357 91.9783H55.8924V95.0459C56.2871 94.6671 56.6238 94.304 56.9974 93.9778C58.5181 92.6413 60.3071 91.9152 62.3119 91.6942C63.3274 91.5837 64.3324 91.6205 65.3374 91.8204C67.1633 92.1835 68.2262 93.3253 68.5945 95.0986C68.7734 95.9457 68.8471 96.8244 68.8576 97.6926C68.8944 100.192 68.8576 102.691 68.8839 105.191C68.8944 105.948 69.0154 106.706 69.1259 107.459C69.1996 107.943 69.4785 108.316 69.9257 108.558C70.0152 108.606 70.0468 108.764 70.1362 108.927H66.0162C65.2901 108.927 64.8323 108.637 64.6902 107.927C64.5376 107.164 64.4377 106.375 64.4271 105.596C64.3956 102.844 64.4166 100.092 64.4113 97.3454C64.4113 96.3824 64.3745 95.4248 64.1009 94.4935C63.7326 93.2622 62.9275 92.6202 61.6594 92.7202C59.4021 92.8991 57.6709 94.0041 56.5133 95.9615C56.4028 96.1457 56.366 96.393 56.366 96.614C56.3555 100.576 56.3608 104.538 56.3608 108.5V108.911H51.9145V108.506C51.9145 103.854 51.9145 99.2028 51.9145 94.5566C51.9145 94.1672 51.9145 93.7673 51.8408 93.3832C51.7829 93.0885 51.6093 92.8097 51.483 92.5255C51.4094 92.3572 51.3252 92.1888 51.2305 91.9783H51.2357Z"
    fill="white"
  /><path
    d="M0 108.918C4.23051 101.299 8.44524 93.7163 12.6863 86.0814H0.0473545V85.25H18.3375C14.0964 92.8586 9.8712 100.451 5.61964 108.081H18.3322V108.918H0.00526697H0Z"
    fill="white"
  /><path
    d="M104.573 104.602C105.278 105.16 105.967 105.713 106.683 106.276C105.925 106.902 105.125 107.412 104.262 107.833C102.505 108.696 100.637 109.096 98.6901 109.217C96.6012 109.354 94.5438 109.196 92.5548 108.533C88.3401 107.139 85.4461 104.397 84.4043 100.019C83.3624 95.631 84.3306 91.6847 87.5824 88.4434C89.3188 86.7122 91.4656 85.6967 93.8545 85.2021C96.8327 84.5865 99.7899 84.6864 102.705 85.602C104.152 86.0598 105.462 86.7859 106.683 87.7751C105.973 88.3434 105.278 88.8959 104.589 89.4431C104.168 88.959 103.784 88.4697 103.357 88.0277C102.152 86.7807 100.721 85.9124 98.9795 85.6704C96.3486 85.3073 94.0597 86.0545 92.1392 87.8804C90.4291 89.5063 89.4819 91.5584 89.0294 93.842C88.4138 96.9518 88.6032 100.004 89.9029 102.934C90.9026 105.187 92.4391 106.944 94.7701 107.891C97.9745 109.191 101.421 108.344 103.668 105.718C103.973 105.36 104.257 104.992 104.578 104.602H104.573Z"
    fill="white"
  /><path
    d="M23.4852 96.8079C22.8696 96.4764 22.2592 96.1501 21.6278 95.8081C22.2434 94.8084 23.059 94.0559 24.0272 93.4561C25.7373 92.3984 27.621 91.8723 29.61 91.6934C31.0096 91.5671 32.3988 91.6197 33.7563 92.0301C35.6348 92.5984 36.6924 93.9139 37.0344 95.8028C37.1554 96.4658 37.1818 97.1446 37.1923 97.8181C37.2238 100.37 37.2133 102.927 37.2554 105.479C37.2659 106.184 37.3922 106.884 37.5132 107.579C37.5869 108.01 37.85 108.347 38.2657 108.552C38.3604 108.6 38.4025 108.747 38.513 108.921H37.829C36.6608 108.921 35.4927 108.9 34.3246 108.931C33.7563 108.947 33.188 108.563 33.067 108C32.946 107.447 32.8934 106.884 32.8144 106.327C32.8039 106.263 32.7986 106.2 32.7881 106.069C32.6724 106.174 32.5882 106.253 32.5092 106.332C31.2306 107.589 29.8099 108.61 28.0262 109.015C26.2003 109.426 24.406 109.389 22.7223 108.463C20.6123 107.305 20.0124 104.553 21.4489 102.701C22.1487 101.801 23.1011 101.238 24.1482 100.875C25.8004 100.302 27.4842 99.8124 29.1522 99.2914C30.273 98.9389 31.3885 98.5758 32.4145 97.976C32.6934 97.8129 32.8144 97.634 32.7723 97.2972C32.6724 96.4974 32.6724 95.6818 32.5145 94.8978C32.1146 92.8878 30.9675 92.1669 28.9943 92.33C26.8265 92.5037 25.3269 93.7455 24.1956 95.5082C23.9377 95.9081 23.7378 96.3448 23.4905 96.8026L23.4852 96.8079ZM32.7723 98.5285C32.1935 98.8021 31.6779 99.081 31.1359 99.2967C30.0099 99.7334 28.8628 100.102 27.742 100.554C26.6107 101.012 25.6741 101.717 25.2216 102.922C24.9059 103.769 24.8322 104.648 24.948 105.532C25.1374 106.979 26.0372 107.895 27.3106 108.016C28.2787 108.11 29.1943 107.916 30.0572 107.458C31.0675 106.921 31.862 106.132 32.5671 105.248C32.6776 105.111 32.7618 104.901 32.7618 104.727C32.7776 102.764 32.7723 100.802 32.7723 98.8337V98.5285V98.5285Z"
    fill="white"
  /><path
    d="M112.313 96.8079C111.697 96.4764 111.087 96.1501 110.456 95.8081C111.071 94.8084 111.887 94.0559 112.855 93.4561C114.565 92.3984 116.449 91.8723 118.438 91.6934C119.838 91.5671 121.227 91.6197 122.584 92.0301C124.468 92.5984 125.52 93.9086 125.862 95.8028C125.983 96.4658 126.01 97.1446 126.02 97.8181C126.052 100.37 126.041 102.927 126.083 105.479C126.094 106.184 126.22 106.884 126.341 107.579C126.415 108.01 126.678 108.347 127.094 108.552C127.188 108.6 127.23 108.747 127.346 108.921H126.299C125.241 108.921 124.184 108.921 123.121 108.921C122.542 108.921 122.09 108.657 121.932 108.089C121.774 107.516 121.732 106.916 121.637 106.327C121.627 106.263 121.621 106.195 121.611 106.069C121.495 106.174 121.416 106.248 121.332 106.327C120.053 107.584 118.633 108.61 116.849 109.01C115.023 109.42 113.229 109.389 111.545 108.463C109.435 107.305 108.83 104.559 110.272 102.701C110.966 101.801 111.924 101.233 112.971 100.875C114.623 100.302 116.307 99.8124 117.975 99.2914C119.096 98.9389 120.211 98.5758 121.237 97.976C121.511 97.8129 121.642 97.634 121.6 97.2972C121.5 96.4974 121.5 95.6818 121.342 94.8978C120.943 92.8825 119.795 92.1669 117.822 92.3248C115.654 92.4984 114.155 93.7402 113.023 95.5029C112.766 95.9028 112.566 96.3396 112.318 96.7973L112.313 96.8079ZM121.6 98.518C121.074 98.7705 120.611 99.0389 120.122 99.2283C118.948 99.6861 117.749 100.081 116.58 100.549C115.544 100.965 114.66 101.586 114.171 102.638C113.739 103.564 113.65 104.553 113.786 105.548C113.981 106.963 114.76 107.789 116.038 107.989C116.933 108.131 117.796 107.963 118.617 107.584C119.743 107.063 120.606 106.227 121.374 105.274C121.5 105.122 121.595 104.89 121.595 104.701C121.611 102.88 121.606 101.059 121.606 99.2336V98.518H121.6Z"
    fill="white"
  /><path
    d="M161.508 105.216C162.177 105.542 162.882 105.884 163.608 106.236C163.061 106.989 162.361 107.52 161.587 107.947C160.198 108.71 158.698 109.083 157.13 109.209C155.084 109.378 153.079 109.204 151.148 108.473C148.633 107.52 146.68 105.921 145.86 103.279C144.928 100.28 145.27 97.4281 147.296 94.9235C148.501 93.4344 150.127 92.5557 151.963 92.0821C154.473 91.4297 156.973 91.4139 159.398 92.4399C162.061 93.5712 163.613 95.6286 164.181 98.4384C164.329 99.1593 164.36 99.9012 164.45 100.669H149.832C149.906 101.327 149.943 101.953 150.048 102.569C150.29 104.005 150.8 105.337 151.721 106.489C153.858 109.152 157.63 109.351 160.035 106.91C160.545 106.389 160.993 105.81 161.508 105.221V105.216ZM160.53 99.8486C160.53 98.2437 160.361 96.702 159.756 95.2392C159.298 94.129 158.609 93.2082 157.499 92.6767C155.678 91.8085 153.395 92.2979 151.974 93.8554C151.016 94.9077 150.485 96.1758 150.185 97.5439C150.022 98.2911 149.943 99.0593 149.816 99.8486H160.53V99.8486Z"
    fill="white"
  /><path
    d="M135.567 108.925H131.12V108.504C131.12 103.853 131.12 99.2064 131.12 94.555C131.12 94.1446 131.11 93.7236 131.041 93.3185C130.994 93.0501 130.831 92.8081 130.715 92.5555C130.631 92.3766 130.542 92.2029 130.426 91.9819H135.093V95.0706C135.314 94.8023 135.472 94.6023 135.64 94.4077C137.008 92.8554 138.692 91.8557 140.765 91.6031C141.754 91.4821 142.686 91.682 143.407 92.4397C144.08 93.1448 144.196 94.2866 143.707 95.1759C143.207 96.0757 142.17 96.5545 141.149 96.344C140.186 96.1493 139.418 95.339 139.308 94.3761C139.281 94.1498 139.287 93.9183 139.308 93.692C139.329 93.4763 139.387 93.2658 139.445 92.9817C139.176 93.0185 138.913 93.008 138.682 93.0922C137.177 93.6763 136.23 94.8181 135.603 96.2546C135.556 96.3598 135.577 96.4913 135.577 96.6124C135.577 100.575 135.577 104.537 135.577 108.499V108.92L135.567 108.925Z"
    fill="white"
  /><path
    d="M46.7133 108.925H42.2934V108.536C42.2934 103.874 42.2934 99.2116 42.2934 94.5496C42.2934 94.1602 42.2934 93.7603 42.2197 93.3762C42.1619 93.0815 41.9882 92.8027 41.8619 92.5185C41.7883 92.3502 41.7041 92.1818 41.6094 91.9766H46.7133V108.92V108.925Z"
    fill="white"
  /><path
    d="M46.6666 86.9334C46.6614 88.3646 45.4932 89.4906 44.0252 89.4801C42.5782 89.4696 41.4153 88.312 41.4259 86.886C41.4364 85.4601 42.6308 84.2656 44.062 84.2656C45.4985 84.2656 46.6772 85.4706 46.6666 86.9386V86.9334Z"
    fill="white"
  /><defs><linearGradient
      id="paint0_linear_3518_66758"
      x1="72.4967"
      y1="45.0474"
      x2="93.5928"
      y2="22.6842"
      gradientUnits="userSpaceOnUse"
    ><stop stop-color="#28B891" /><stop
        offset="1"
        stop-color="#ACD146"
      /></linearGradient><linearGradient
      id="paint1_linear_3518_66758"
      x1="63.3793"
      y1="44.8314"
      x2="89.4612"
      y2="17.191"
      gradientUnits="userSpaceOnUse"
    ><stop stop-color="#28B891" /><stop
        offset="1"
        stop-color="#ACD146"
      /></linearGradient><linearGradient
      id="paint2_linear_3518_66758"
      x1="71.9145"
      y1="52.8877"
      x2="97.9965"
      y2="25.2473"
      gradientUnits="userSpaceOnUse"
    ><stop stop-color="#28B891" /><stop
        offset="1"
        stop-color="#ACD146"
      /></linearGradient><linearGradient
      id="paint3_linear_3518_66758"
      x1="76.482"
      y1="36.6171"
      x2="91.3887"
      y2="20.8172"
      gradientUnits="userSpaceOnUse"
    ><stop stop-color="#28B891" /><stop
        offset="1"
        stop-color="#ACD146"
      /></linearGradient><linearGradient
      id="paint4_linear_3518_66758"
      x1="73.6617"
      y1="31.4921"
      x2="88.5684"
      y2="15.6922"
      gradientUnits="userSpaceOnUse"
    ><stop stop-color="#28B891" /><stop
        offset="1"
        stop-color="#ACD146"
      /></linearGradient><linearGradient
      id="paint5_linear_3518_66758"
      x1="76.0956"
      y1="49.0275"
      x2="94.7653"
      y2="29.2364"
      gradientUnits="userSpaceOnUse"
    ><stop stop-color="#28B891" /><stop
        offset="1"
        stop-color="#ACD146"
      /></linearGradient><linearGradient
      id="paint6_linear_3518_66758"
      x1="66.4352"
      y1="47.7159"
      x2="92.5108"
      y2="20.0692"
      gradientUnits="userSpaceOnUse"
    ><stop stop-color="#28B891" /><stop
        offset="1"
        stop-color="#ACD146"
      /></linearGradient><linearGradient
      id="paint7_linear_3518_66758"
      x1="71.7919"
      y1="52.7662"
      x2="97.8675"
      y2="25.1259"
      gradientUnits="userSpaceOnUse"
    ><stop stop-color="#28B891" /><stop
        offset="1"
        stop-color="#ACD146"
      /></linearGradient><linearGradient
      id="paint8_linear_3518_66758"
      x1="76.0303"
      y1="15.1647"
      x2="119.021"
      y2="15.1647"
      gradientUnits="userSpaceOnUse"
    ><stop stop-color="#54BF9C" /><stop
        offset="0.17"
        stop-color="#4BB393"
      /><stop offset="0.49" stop-color="#36947D" /><stop
        offset="0.9"
        stop-color="#14615A"
      /><stop offset="1" stop-color="#0B5451" /></linearGradient><linearGradient
      id="paint9_linear_3518_66758"
      x1="76.6212"
      y1="30.9469"
      x2="120.999"
      y2="30.9469"
      gradientUnits="userSpaceOnUse"
    ><stop stop-color="#28B891" /><stop
        offset="1"
        stop-color="#ACD146"
      /></linearGradient><linearGradient
      id="paint10_linear_3518_66758"
      x1="46.0193"
      y1="52.4953"
      x2="89.1556"
      y2="52.4953"
      gradientUnits="userSpaceOnUse"
    ><stop stop-color="#1F2555" /><stop
        offset="0.38"
        stop-color="#215981"
      /><stop offset="0.8" stop-color="#238DAD" /><stop
        offset="1"
        stop-color="#24A2BF"
      /></linearGradient><linearGradient
      id="paint11_linear_3518_66758"
      x1="32.8192"
      y1="50.8615"
      x2="77.7039"
      y2="28.6883"
      gradientUnits="userSpaceOnUse"
    ><stop stop-color="#17BCE2" /><stop
        offset="1"
        stop-color="#61C9DB"
      /></linearGradient></defs></svg>
